<svg width="46" height="30" viewBox="0 0 46 30" fill="none" xmlns="http://www.w3.org/2000/svg">
<path fill-rule="evenodd" clip-rule="evenodd" d="M17.2912 9.79289C17.6817 9.40237 18.3148 9.40237 18.7054 9.79289L22.4983 13.5858L26.2912 9.79289C26.6817 9.40237 27.3148 9.40237 27.7054 9.79289C28.0959 10.1834 28.0959 10.8166 27.7054 11.2071L23.9125 15L27.7054 18.7929C28.0959 19.1834 28.0959 19.8166 27.7054 20.2071C27.3148 20.5976 26.6817 20.5976 26.2912 20.2071L22.4983 16.4142L18.7054 20.2071C18.3148 20.5976 17.6817 20.5976 17.2912 20.2071C16.9006 19.8166 16.9006 19.1834 17.2912 18.7929L21.0841 15L17.2912 11.2071C16.9006 10.8166 16.9006 10.1834 17.2912 9.79289ZM43.4984 15C43.4984 22.1797 37.6781 28 30.4984 28H15C7.8203 28 2 22.1797 2 15C2 7.8203 7.8203 2 15 2H30.4984C37.6781 2 43.4984 7.8203 43.4984 15ZM45.3668 16.9957C44.3909 24.3365 38.106 30 30.4984 30H15C6.71573 30 0 23.2843 0 15C0 6.71573 6.71573 0 15 0H30.4984C38.7827 0 45.4984 6.71573 45.4984 15C45.4984 15.6766 45.4536 16.3428 45.3668 16.9957Z" fill="#292D32"/>
</svg>
