<svg width="46" height="30" viewBox="0 0 46 30" fill="none" xmlns="http://www.w3.org/2000/svg">
<path fill-rule="evenodd" clip-rule="evenodd" d="M10.3746 11.0527C10.3746 10.5004 10.8223 10.0527 11.3746 10.0527H34.1238C34.6761 10.0527 35.1238 10.5004 35.1238 11.0527C35.1238 11.605 34.6761 12.0527 34.1238 12.0527H11.3746C10.8223 12.0527 10.3746 11.605 10.3746 11.0527Z" fill="#292D32"/>
<path fill-rule="evenodd" clip-rule="evenodd" d="M21.7492 18.9474C21.7492 18.3951 22.1969 17.9474 22.7492 17.9474L34.1238 17.9474C34.6761 17.9474 35.1238 18.3951 35.1238 18.9474C35.1238 19.4997 34.6761 19.9474 34.1238 19.9474L22.7492 19.9474C22.1969 19.9474 21.7492 19.4997 21.7492 18.9474Z" fill="#292D32"/>
<path fill-rule="evenodd" clip-rule="evenodd" d="M30.4984 2H15C7.8203 2 2 7.8203 2 15C2 22.1797 7.8203 28 15 28H30.4984C37.6781 28 43.4984 22.1797 43.4984 15C43.4984 7.8203 37.6781 2 30.4984 2ZM15 0C6.71573 0 0 6.71573 0 15C0 23.2843 6.71573 30 15 30H30.4984C38.7827 30 45.4984 23.2843 45.4984 15C45.4984 6.71573 38.7827 0 30.4984 0H15Z" fill="#292D32"/>
</svg>
